<svg width="7" height="7" viewBox="0 0 7 7" fill="none" xmlns="http://www.w3.org/2000/svg">
<path d="M6.5 3.25C6.5 3.89279 6.30939 4.52114 5.95228 5.0556C5.59516 5.59006 5.08758 6.00662 4.49372 6.25261C3.89986 6.49859 3.2464 6.56295 2.61596 6.43755C1.98552 6.31215 1.40643 6.00262 0.951904 5.5481C0.497384 5.09358 0.187851 4.51448 0.0624493 3.88404C-0.0629527 3.25361 0.00140817 2.60014 0.247393 2.00628C0.493378 1.41242 0.909938 0.904838 1.4444 0.547724C1.97886 0.190609 2.60721 0 3.25 0C4.11163 0.00107502 4.93765 0.34383 5.54691 0.95309C6.15617 1.56235 6.49893 2.38838 6.5 3.25Z" fill="#808080"/>
</svg>
